# xmcd CD database file
#
# Track frame offsets:
#	150
#	11492
#	28100
#	40435
#	55477
#	67530
#	81000
#	97012
#	108640
#	119002
#
# Disc length: 1718 seconds
#
# Revision: 0
# Processed by: cddbd v1.5.1PL2 Copyright (c) Steve Scherf et al.
# Submitted via: CDex 1.70beta2
#
DISCID=8306b40a
DTITLE=Various Artist - Country Divas [CD1]
DYEAR=2003
DGENRE=Country
TTITLE0=Kitty Wells - It Wasn't God Who Made Honky Tonk Angels
TTITLE1=Mary Lou Turner - It's Different With You
TTITLE2=Patti Page - Give Him Love
TTITLE3=Jeanne Pruette - Satin Sheets
TTITLE4=Donna Fargo - Funny Face
TTITLE5=Brenda Lee - Nobody Wins
TTITLE6=Jeannie Seely - Can I Sleep In Your Arms
TTITLE7=Patsy Cline - Walkin' After Midnight
TTITLE8=Barbara Mandrell - Sleeping Single In A Double Bed
TTITLE9=Loretta Lynn - You Ain't Woman Enough
EXTD=YEAR: 2003
EXTT0=
EXTT1=
EXTT2=
EXTT3=
EXTT4=
EXTT5=
EXTT6=
EXTT7=
EXTT8=
EXTT9=
PLAYORDER=
